<?xml version="1.0" standalone="no"?>
<!DOCTYPE svg PUBLIC "-//W3C//DTD SVG 20010904//EN"
 "http://www.w3.org/TR/2001/REC-SVG-20010904/DTD/svg10.dtd">
<svg version="1.0" xmlns="http://www.w3.org/2000/svg"
 width="512.000000pt" height="512.000000pt" viewBox="0 0 512.000000 512.000000"
 preserveAspectRatio="xMidYMid meet">

<g transform="translate(0.000000,512.000000) scale(0.100000,-0.100000)"
fill="#000000" stroke="none">
<path d="M1170 4538 c0 -110 50 -210 129 -256 l46 -27 325 -3 c357 -4 403 1
469 48 63 46 94 108 99 202 5 79 4 80 -16 69 -11 -6 -41 -11 -66 -11 l-46 0 0
-56 c0 -50 -3 -59 -34 -90 l-34 -34 -336 0 -336 0 -32 29 c-27 24 -32 36 -36
89 l-4 60 -47 4 c-25 3 -54 8 -63 12 -16 7 -18 2 -18 -36z"/>
<path d="M4610 4268 c-416 -86 -430 -91 -430 -151 0 -25 20 -50 112 -144 l112
-114 -389 -389 c-214 -214 -399 -391 -411 -394 -12 -3 -33 -2 -46 3 -13 5
-165 149 -337 321 -362 361 -368 366 -501 358 -60 -4 -87 -10 -121 -31 -52
-30 -1243 -1222 -1214 -1213 11 3 137 33 280 66 l260 60 385 390 c378 384 386
390 424 390 39 0 49 -9 360 -319 358 -355 372 -365 486 -365 123 1 119 -2 600
479 l434 435 117 -115 c103 -103 120 -115 151 -115 21 0 41 7 52 19 11 12 45
156 102 436 l86 418 -20 26 c-15 20 -28 26 -63 28 -24 1 -217 -35 -429 -79z"/>
<path d="M1125 4003 c-49 -47 -134 -124 -187 -170 -54 -47 -95 -90 -92 -94 17
-29 56 -1 206 148 139 138 179 186 166 198 -1 1 -43 -35 -93 -82z"/>
<path d="M1099 3443 c-63 -58 -145 -133 -184 -166 -38 -33 -74 -63 -79 -68 -6
-5 6 -9 29 -9 36 0 47 8 192 152 137 136 174 181 161 194 -2 2 -56 -44 -119
-103z"/>
<path d="M1110 2918 c-58 -56 -142 -132 -187 -170 -46 -39 -83 -74 -83 -79 0
-15 44 -10 71 9 46 30 311 311 307 326 -2 8 -43 -25 -108 -86z"/>
<path d="M2580 2584 c-114 -28 -838 -196 -1108 -257 -186 -41 -192 -44 -157
-54 21 -7 46 -8 59 -4 11 5 324 79 694 166 369 87 672 162 672 167 0 14 -60 7
-160 -18z"/>
<path d="M3915 2224 c-99 -24 -389 -91 -645 -149 -256 -58 -487 -111 -515
-117 l-50 -12 36 -9 c30 -7 144 17 720 152 376 89 693 165 704 170 53 25 -85
5 -250 -35z"/>
<path d="M2380 2155 c-223 -17 -398 -35 -390 -38 44 -18 225 -57 267 -57 44 0
182 30 458 100 61 16 101 28 90 28 -11 0 -202 -15 -425 -33z"/>
<path d="M4930 2002 l-145 -37 -11 -73 c-6 -40 -16 -78 -22 -84 -7 -7 -12 -42
-12 -79 0 -37 -4 -71 -10 -74 -5 -3 -10 -23 -10 -44 0 -21 -3 -41 -7 -45 -5
-4 -8 -11 -9 -14 0 -4 -4 -38 -9 -76 l-8 -70 -365 -455 c-200 -251 -375 -465
-388 -476 -13 -12 -24 -24 -24 -29 0 -12 -80 -111 -91 -112 -5 -1 -10 -2 -11
-3 -2 -2 -14 -5 -28 -7 -13 -2 -27 -9 -31 -15 -7 -12 -16 -11 -41 2 -17 9 -18
43 -18 487 l-1 477 -37 -40 c-20 -23 -30 -32 -22 -20 12 16 8 15 -15 -5 -47
-39 -168 -164 -169 -174 -1 -5 -9 -10 -19 -12 -25 -3 -48 -24 -40 -37 3 -5 2
-7 -4 -4 -5 3 -47 -37 -93 -88 -46 -52 -86 -95 -88 -95 -3 0 5 12 19 28 l24
27 -30 -25 c-16 -14 -64 -60 -106 -102 l-77 -78 -1 -132 c-2 -98 -6 -137 -16
-147 -12 -12 -43 -7 -217 34 -144 33 -229 48 -293 50 -49 2 -125 4 -167 5
l-78 3 0 568 c0 329 -4 569 -9 569 -5 0 -26 -19 -47 -43 -22 -24 -34 -36 -29
-27 6 9 0 6 -11 -6 -12 -13 -25 -20 -29 -16 -4 4 -5 0 -3 -8 1 -8 -7 -19 -19
-25 -13 -5 -23 -15 -23 -22 0 -13 -34 -35 -42 -27 -3 3 -5 -3 -4 -13 0 -10 -3
-20 -9 -21 -27 -10 -45 -24 -42 -33 1 -6 -7 -13 -18 -14 -11 -2 -38 -25 -60
-51 -46 -54 -170 -182 -140 -144 l20 25 -30 -25 c-17 -14 -60 -56 -97 -95
l-68 -70 0 -127 c0 -69 -3 -133 -6 -142 -9 -23 -30 -21 -244 30 -177 41 -209
46 -354 50 l-159 4 6 -45 c6 -55 36 -91 87 -105 167 -45 1308 -310 1335 -310
19 0 49 -7 67 -15 34 -15 1325 -325 1356 -325 35 0 1348 313 1370 327 13 8 32
28 42 46 19 31 20 56 20 810 0 643 -2 783 -14 811 -8 19 -18 36 -23 39 -4 3
-73 -11 -153 -31z m-2680 -415 c0 -2 -10 -12 -22 -23 l-23 -19 19 23 c18 21
26 27 26 19z m1340 -411 c0 -2 -8 -10 -17 -17 -16 -13 -17 -12 -4 4 13 16 21
21 21 13z m-1850 -59 c0 -2 -10 -12 -22 -23 l-23 -19 19 23 c18 21 26 27 26
19z m1450 -320 c0 -2 -10 -12 -22 -23 l-23 -19 19 23 c18 21 26 27 26 19z"/>
<path d="M3820 1819 c-195 -15 -371 -29 -390 -31 -27 -2 -5 -10 95 -36 72 -17
146 -32 165 -32 32 0 190 35 450 99 144 36 133 36 -320 0z"/>
</g>
</svg>
