<?xml version="1.0" standalone="no"?>
<!DOCTYPE svg PUBLIC "-//W3C//DTD SVG 20010904//EN"
 "http://www.w3.org/TR/2001/REC-SVG-20010904/DTD/svg10.dtd">
<svg version="1.0" xmlns="http://www.w3.org/2000/svg"
 width="512.000000pt" height="512.000000pt" viewBox="0 0 512.000000 512.000000"
 preserveAspectRatio="xMidYMid meet">

<g transform="translate(0.000000,512.000000) scale(0.100000,-0.100000)"
fill="#000000" stroke="none">
<path d="M120 3615 l0 -195 2100 0 2100 0 0 195 0 195 -788 0 -788 0 -44 -45
c-24 -25 -53 -45 -65 -45 -11 0 -38 12 -58 26 -44 29 -53 28 -149 -15 -62 -28
-65 -31 -72 -71 -13 -80 -13 -80 -135 -80 -121 0 -126 2 -137 67 -3 22 -9 45
-13 51 -7 12 -145 72 -165 72 -6 0 -28 -11 -48 -25 -20 -14 -45 -25 -55 -25
-11 0 -39 20 -63 45 l-44 45 -788 0 -788 0 0 -195z"/>
<path d="M1740 2610 l0 -341 58 3 57 3 3 338 2 337 -60 0 -60 0 0 -340z"/>
<path d="M2642 2293 c-18 -9 -45 -32 -60 -51 -25 -32 -27 -45 -30 -139 l-4
-103 169 2 168 3 0 95 c0 80 -3 100 -22 130 -44 72 -146 100 -221 63z"/>
<path d="M1740 1875 l0 -335 60 0 60 0 0 335 0 335 -60 0 -60 0 0 -335z"/>
<path d="M4340 1515 l0 -355 55 0 55 0 0 355 0 355 -55 0 -55 0 0 -355z"/>
<path d="M1740 1135 l0 -335 60 0 60 0 0 335 0 335 -60 0 -60 0 0 -335z"/>
<path d="M785 1065 c48 -24 59 -50 63 -157 l4 -98 54 0 54 0 0 90 c0 141 -34
180 -152 180 l-53 0 30 -15z"/>
<path d="M2550 817 c0 -3 147 -443 155 -466 12 -32 35 20 104 233 39 121 71
223 71 228 0 4 -74 8 -165 8 -91 0 -165 -1 -165 -3z"/>
</g>
</svg>
