<?xml version="1.0" standalone="no"?>
<!DOCTYPE svg PUBLIC "-//W3C//DTD SVG 20010904//EN"
 "http://www.w3.org/TR/2001/REC-SVG-20010904/DTD/svg10.dtd">
<svg version="1.0" xmlns="http://www.w3.org/2000/svg"
 width="512.000000pt" height="512.000000pt" viewBox="0 0 512.000000 512.000000"
 preserveAspectRatio="xMidYMid meet">

<g transform="translate(0.000000,512.000000) scale(0.100000,-0.100000)"
fill="#000000" stroke="none">
<path d="M1100 4199 c-509 -264 -928 -483 -932 -487 -4 -4 -4 -55 0 -114 l7
-108 677 326 c537 258 680 323 695 316 11 -6 39 -7 73 -1 122 19 335 39 422
39 82 0 253 -15 403 -36 28 -3 55 -12 60 -19 10 -12 151 -105 160 -105 2 0 24
-13 47 -29 24 -16 108 -69 188 -118 121 -76 273 -177 316 -212 5 -4 29 -21 52
-36 24 -15 41 -32 40 -37 -2 -5 -73 -87 -158 -183 l-155 -173 -1007 -4 c-1003
-3 -1007 -3 -1035 -24 -15 -11 -38 -36 -51 -54 -22 -33 -22 -33 -22 -471 0
-242 1 -439 3 -439 2 0 144 34 316 75 172 41 322 75 334 75 32 1 297 -62 297
-70 0 -4 -42 -16 -92 -28 -51 -12 -262 -60 -468 -107 -206 -47 -384 -89 -395
-95 l-20 -9 20 -2 c26 -2 -29 -14 527 117 l493 116 260 -62 c143 -35 283 -70
310 -78 57 -17 61 -15 -82 -53 -74 -19 -83 -24 -83 -45 0 -12 -4 -26 -10 -29
-5 -3 -10 -15 -10 -26 0 -11 -4 -17 -10 -14 -5 3 -10 -3 -10 -14 0 -12 -4 -21
-9 -21 -5 0 -13 -9 -16 -21 -4 -11 -9 -18 -12 -16 -2 3 -28 -6 -56 -21 -29
-14 -53 -25 -55 -24 -1 1 -19 -7 -39 -18 -21 -11 -43 -20 -50 -20 -7 0 -13 -4
-13 -9 0 -6 -9 -8 -20 -6 -11 2 -20 -1 -20 -7 0 -6 -3 -9 -6 -6 -3 4 -26 -3
-50 -14 -25 -10 -53 -21 -62 -23 -9 -2 -41 -13 -69 -24 -29 -12 -53 -18 -53
-15 0 4 -6 2 -12 -3 -12 -9 -59 -24 -73 -23 -3 0 -19 -7 -35 -15 -17 -9 -30
-13 -30 -10 0 3 -8 1 -19 -4 -12 -7 -21 -27 -25 -55 -4 -25 -12 -49 -18 -52
-7 -5 -8 -2 -4 7 4 8 -7 -2 -24 -21 -17 -19 -28 -28 -24 -20 7 13 6 13 -10 1
-9 -8 -21 -22 -26 -31 -10 -19 46 -8 520 104 l274 65 149 -36 c82 -19 145 -39
140 -43 -8 -8 -367 -93 -745 -177 -195 -43 -258 -63 -198 -63 11 0 242 52 512
116 485 114 494 116 551 105 32 -7 64 -14 72 -18 13 -4 15 77 15 625 l0 630
31 31 31 31 132 0 c73 0 234 3 357 7 l224 6 20 41 c11 23 32 48 47 56 25 13
34 12 110 -12 76 -25 187 -48 231 -48 16 0 17 25 17 393 l0 392 -132 67 c-73
37 -493 254 -933 483 -440 228 -807 415 -815 415 -8 -1 -431 -217 -940 -481z
m1059 86 c24 -3 64 -17 90 -30 l46 -24 -115 -2 c-177 -3 -187 -3 -320 0 l-125
3 60 27 c38 18 80 29 115 30 30 1 56 4 58 6 4 4 135 -3 191 -10z"/>
<path d="M1556 4024 c-39 -39 -34 -39 484 -39 445 0 500 2 500 16 0 38 -9 39
-496 39 -416 0 -474 -2 -488 -16z"/>
<path d="M1550 3831 c-5 -11 -10 -22 -10 -25 0 -3 225 -6 500 -6 404 0 500 3
500 13 0 36 -15 37 -502 37 -462 0 -478 -1 -488 -19z"/>
<path d="M1562 3654 c-12 -8 -22 -19 -22 -25 0 -5 193 -9 500 -9 432 0 500 2
500 15 0 32 -37 35 -497 35 -399 0 -461 -2 -481 -16z"/>
<path d="M3540 2595 c1 -78 45 -162 100 -190 40 -21 504 -22 553 -1 62 26 107
102 107 183 0 31 -1 32 -37 27 -57 -8 -62 -11 -56 -33 3 -12 0 -35 -8 -52 -21
-52 -53 -59 -281 -59 -250 0 -268 6 -282 87 l-9 51 -44 4 c-38 3 -43 1 -43
-17z"/>
<path d="M3485 2192 c-44 -43 -102 -97 -130 -119 -51 -44 -55 -67 -6 -42 34
17 224 215 219 228 -1 6 -39 -25 -83 -67z"/>
<path d="M1596 1986 l-268 -21 88 -23 c49 -12 104 -22 122 -22 32 0 361 76
370 85 7 6 13 7 -312 -19z"/>
<path d="M3500 1827 c-36 -34 -94 -88 -130 -120 -58 -51 -62 -57 -39 -57 19 0
52 28 137 113 62 63 112 117 112 120 0 16 -19 3 -80 -56z"/>
<path d="M3437 1391 c-107 -97 -125 -117 -106 -119 17 -3 47 21 132 106 60 60
108 114 106 119 -2 6 -62 -42 -132 -106z"/>
<path d="M420 1460 c-25 -4 -91 -11 -147 -15 l-103 -7 0 -112 c0 -182 27 -206
235 -206 l125 0 0 175 0 175 -32 -1 c-18 -1 -53 -5 -78 -9z"/>
<path d="M2305 1280 c-309 -25 -294 -22 -193 -48 48 -12 100 -22 115 -22 15 1
107 20 203 44 199 50 192 51 -125 26z"/>
<path d="M1133 1226 l-63 -62 0 -97 c0 -71 -4 -99 -13 -103 -7 -2 -74 10 -147
27 -97 23 -170 34 -258 38 l-124 6 6 -30 c13 -62 30 -69 351 -145 165 -39 309
-74 319 -77 18 -5 19 2 14 242 -4 136 -10 251 -15 255 -4 4 -36 -20 -70 -54z"/>
<path d="M2187 859 c-16 -19 -25 -27 -21 -19 5 8 -28 -21 -71 -65 -44 -44 -76
-73 -71 -65 9 17 -58 -52 -100 -103 -14 -18 -23 -25 -19 -17 4 8 -8 -1 -25
-20 -17 -19 -29 -28 -25 -20 4 8 -10 -4 -30 -28 -20 -23 -42 -39 -47 -36 -7 4
-8 2 -4 -4 4 -7 2 -12 -3 -12 -6 0 -10 -3 -10 -7 1 -5 1 -51 0 -104 -1 -73 -4
-98 -15 -102 -8 -3 -79 9 -158 28 -106 25 -172 34 -256 37 l-114 3 6 -30 c13
-63 18 -65 524 -185 l474 -113 241 57 c133 31 244 60 247 64 3 4 4 141 2 305
l-4 298 -194 -243 c-107 -134 -200 -242 -206 -240 -6 2 -18 -4 -28 -13 -9 -8
-25 -13 -34 -9 -14 5 -16 29 -17 188 -1 99 -4 250 -8 335 l-6 154 -28 -34z"/>
</g>
</svg>
