<?xml version="1.0" standalone="no"?>
<!DOCTYPE svg PUBLIC "-//W3C//DTD SVG 20010904//EN"
 "http://www.w3.org/TR/2001/REC-SVG-20010904/DTD/svg10.dtd">
<svg version="1.0" xmlns="http://www.w3.org/2000/svg"
 width="512.000000pt" height="512.000000pt" viewBox="0 0 512.000000 512.000000"
 preserveAspectRatio="xMidYMid meet">

<g transform="translate(0.000000,512.000000) scale(0.100000,-0.100000)"
fill="#000000" stroke="none">
<path d="M4822 5023 c-7 -3 -19 -18 -27 -33 -13 -25 -15 -114 -15 -589 l0
-561 -956 -2 -956 -3 -24 -28 c-39 -45 -29 -98 23 -125 16 -9 268 -12 967 -12
l946 0 0 -685 0 -685 -955 0 -956 0 -24 -25 c-33 -32 -33 -78 0 -110 l24 -25
956 0 955 0 0 -690 0 -690 -959 0 -960 0 -20 -26 c-26 -33 -27 -75 -2 -105
l19 -24 961 -3 961 -2 0 -90 0 -90 -1009 0 -1008 0 -34 -23 c-62 -42 -79 -79
-79 -174 0 -76 2 -86 25 -108 l24 -25 1141 0 1141 0 24 25 c22 22 25 32 25
105 0 88 -7 109 -51 155 l-29 31 -2 2286 -3 2286 -24 26 c-24 25 -65 33 -99
19z"/>
<path d="M2729 4851 c-48 -15 -74 -34 -161 -119 l-88 -86 0 -121 0 -121 98
-96 c65 -63 110 -100 137 -109 26 -9 86 -14 173 -14 l134 0 24 28 c32 38 31
72 -5 108 -29 29 -30 29 -152 29 l-122 0 -89 87 -88 87 72 74 c40 41 87 80
105 88 21 9 70 14 140 14 121 0 147 10 158 59 7 33 -15 85 -40 95 -23 9 -265
6 -296 -3z"/>
</g>
</svg>
