<?xml version="1.0" standalone="no"?>
<!DOCTYPE svg PUBLIC "-//W3C//DTD SVG 20010904//EN"
 "http://www.w3.org/TR/2001/REC-SVG-20010904/DTD/svg10.dtd">
<svg version="1.0" xmlns="http://www.w3.org/2000/svg"
 width="512.000000pt" height="512.000000pt" viewBox="0 0 512.000000 512.000000"
 preserveAspectRatio="xMidYMid meet">

<g transform="translate(0.000000,512.000000) scale(0.100000,-0.100000)"
fill="#000000" stroke="none">
<path d="M1510 4394 c0 -109 2 -125 15 -120 9 3 53 22 99 42 l84 35 88 -36
c49 -21 95 -39 102 -42 9 -4 12 24 12 121 l0 126 -200 0 -200 0 0 -126z"/>
<path d="M3220 4395 c0 -69 1 -125 3 -125 2 0 46 18 97 40 l93 41 91 -37 c50
-20 97 -38 104 -41 9 -4 12 24 12 121 l0 126 -200 0 -200 0 0 -125z"/>
<path d="M660 2760 c0 -66 2 -120 4 -120 3 0 46 18 96 40 l92 39 99 -39 c55
-22 102 -40 104 -40 3 0 5 54 5 120 l0 120 -200 0 -200 0 0 -120z"/>
<path d="M2370 2760 c0 -66 1 -120 3 -120 2 0 45 18 95 40 l91 39 97 -39 c54
-22 99 -40 101 -40 1 0 3 54 3 120 l0 120 -195 0 -195 0 0 -120z"/>
<path d="M4070 2760 c0 -66 2 -120 6 -120 3 0 47 18 99 40 l94 40 78 -34 c137
-58 123 -66 123 73 l0 121 -200 0 -200 0 0 -120z"/>
<path d="M102 1228 c-8 -8 -12 -47 -12 -110 0 -117 1 -118 119 -118 l81 0 0
-188 c0 -133 4 -192 12 -200 8 -8 51 -12 129 -12 94 0 121 3 133 16 13 13 16
46 16 200 l0 184 1980 0 1980 0 0 -184 c0 -154 3 -187 16 -200 12 -13 39 -16
133 -16 78 0 121 4 129 12 8 8 12 67 12 200 l0 188 81 0 c118 0 119 1 119 118
0 63 -4 102 -12 110 -17 17 -4899 17 -4916 0z"/>
</g>
</svg>
