<?xml version="1.0" standalone="no"?>
<!DOCTYPE svg PUBLIC "-//W3C//DTD SVG 20010904//EN"
 "http://www.w3.org/TR/2001/REC-SVG-20010904/DTD/svg10.dtd">
<svg version="1.0" xmlns="http://www.w3.org/2000/svg"
 width="512.000000pt" height="512.000000pt" viewBox="0 0 512.000000 512.000000"
 preserveAspectRatio="xMidYMid meet">

<g transform="translate(0.000000,512.000000) scale(0.100000,-0.100000)"
fill="#000000" stroke="none">
<path d="M1615 4197 l-930 -483 -3 -54 c-1 -30 1 -81 5 -112 l8 -57 675 325
c546 262 679 323 695 316 13 -6 43 -6 75 -1 114 19 336 39 424 39 81 0 264
-17 401 -36 33 -5 59 -15 75 -31 13 -14 38 -32 55 -40 16 -9 59 -35 95 -58 36
-23 99 -61 140 -86 94 -55 382 -247 395 -263 6 -7 33 -25 61 -41 l52 -30 -165
-182 -164 -183 -977 0 c-549 0 -994 -4 -1016 -10 -23 -5 -54 -23 -75 -44 l-36
-36 -3 -451 -3 -451 28 7 c158 40 609 145 626 145 33 0 297 -63 297 -70 0 -4
-24 -12 -52 -18 -29 -6 -161 -37 -293 -67 -132 -31 -327 -76 -433 -100 -192
-43 -227 -54 -181 -56 31 -2 -25 -14 531 117 l493 117 110 -27 c61 -14 115
-26 120 -26 6 0 21 27 33 60 58 149 185 291 330 368 108 57 209 82 337 82 201
0 366 -67 500 -204 44 -45 97 -111 118 -146 44 -76 83 -192 93 -277 6 -56 4
-64 -20 -96 -14 -18 -26 -40 -26 -48 0 -47 -35 -137 -68 -178 -228 -280 -292
-336 -434 -381 -63 -20 -83 -21 -226 -16 -244 8 -311 17 -352 45 -20 14 1 -12
50 -63 59 -60 81 -89 73 -94 -7 -5 -122 -16 -255 -26 -134 -9 -244 -19 -246
-20 -5 -6 167 -46 195 -45 15 0 98 18 183 38 l155 38 167 -165 166 -165 -289
-360 c-160 -199 -298 -362 -307 -363 -9 -2 -29 -6 -43 -9 l-26 -7 -6 228 c-4
125 -7 277 -7 338 l0 111 -26 -30 c-14 -16 -22 -23 -18 -15 4 8 -9 -2 -28 -23
-20 -20 -41 -37 -47 -37 -7 0 -9 -5 -6 -10 3 -6 2 -10 -4 -10 -5 0 -59 -48
-118 -107 -59 -59 -110 -107 -113 -108 -3 0 -27 -22 -53 -49 l-47 -50 0 -92
c0 -64 -4 -95 -13 -103 -10 -8 -39 -4 -113 13 -170 41 -210 47 -311 48 -68 1
-98 -2 -101 -11 -6 -18 16 -65 36 -78 10 -6 230 -61 490 -123 l472 -113 477
112 c451 106 480 114 506 142 l27 29 0 420 0 420 294 0 c288 0 294 0 327 23
19 12 42 38 52 57 16 33 17 111 15 1275 l-3 1240 -155 80 c-85 44 -504 261
-931 483 -426 221 -782 402 -790 402 -7 0 -432 -218 -944 -483z m1051 87 c33
-3 79 -17 104 -30 l45 -24 -123 -1 c-160 -2 -181 -2 -319 0 l-118 3 55 26 c80
37 190 46 356 26z"/>
<path d="M2078 4029 c-10 -5 -18 -18 -18 -27 0 -16 36 -17 500 -17 466 0 500
1 500 17 0 10 -9 22 -19 28 -27 14 -939 13 -963 -1z"/>
<path d="M2072 3838 c-37 -37 -28 -38 488 -38 516 0 525 1 488 38 -17 17 -959
17 -976 0z"/>
<path d="M2082 3654 c-12 -8 -22 -19 -22 -25 0 -5 193 -9 500 -9 301 0 500 4
500 9 0 5 -7 17 -16 25 -14 14 -71 16 -477 16 -403 0 -465 -2 -485 -16z"/>
<path d="M3474 2407 c3 -10 6 -44 6 -75 l0 -56 30 29 c17 16 30 32 30 35 0 4
-16 24 -36 46 -19 21 -33 31 -30 21z"/>
<path d="M3789 2093 c24 -47 7 -105 -44 -153 -25 -23 -35 -25 -145 -28 l-118
-4 -4 -118 c-3 -116 -4 -119 -33 -150 -38 -40 -92 -56 -137 -42 -29 10 -25 4
42 -59 66 -61 79 -69 105 -64 22 4 84 60 242 218 262 261 257 248 153 351 -40
39 -67 61 -61 49z"/>
<path d="M2115 1986 l-270 -21 87 -23 c48 -12 103 -22 121 -22 33 0 366 76
376 86 6 5 8 5 -314 -20z"/>
<path d="M3015 1880 l35 -35 31 32 32 31 -66 4 -67 3 35 -35z"/>
<path d="M2585 1859 c-40 -18 -71 -30 -90 -35 -5 -1 -36 -14 -67 -28 -32 -14
-58 -23 -58 -21 0 3 -13 -1 -30 -10 -16 -8 -33 -14 -37 -13 -4 1 -18 -3 -30
-10 -13 -7 -23 -10 -23 -6 0 3 -6 2 -12 -4 -7 -5 -42 -18 -78 -27 -93 -26 -98
-29 -105 -80 -4 -24 -11 -43 -16 -42 -5 1 -20 -11 -34 -28 -15 -16 -24 -24
-20 -17 11 22 -3 12 -24 -16 l-20 -29 97 22 c53 11 230 52 393 90 l296 70 -38
79 c-22 44 -39 88 -39 97 0 26 -21 28 -65 8z"/>
<path d="M3700 1685 c-107 -107 -190 -195 -185 -195 13 0 391 378 384 384 -3
3 -92 -82 -199 -189z"/>
<path d="M2490 1470 c-162 -38 -323 -74 -357 -81 -60 -12 -85 -29 -44 -29 23
0 743 168 750 175 14 15 -86 -4 -349 -65z"/>
<path d="M885 1454 c-55 -7 -121 -13 -146 -13 l-46 -1 -6 -84 c-8 -97 -2 -140
26 -180 32 -45 72 -56 212 -56 l125 0 0 144 c0 79 -3 158 -6 175 -7 36 -3 35
-159 15z"/>
<path d="M1696 1268 c-15 -18 -24 -26 -20 -18 4 8 -13 -7 -39 -35 l-46 -50 -1
-98 c0 -71 -4 -99 -13 -103 -7 -2 -80 11 -163 29 -113 26 -175 35 -256 36 -93
2 -108 0 -108 -14 0 -25 28 -72 47 -79 13 -5 351 -88 622 -151 l24 -6 -7 188
c-3 103 -7 221 -8 261 0 39 -2 72 -3 72 -1 0 -15 -15 -29 -32z"/>
</g>
</svg>
