<?xml version="1.0" standalone="no"?>
<!DOCTYPE svg PUBLIC "-//W3C//DTD SVG 20010904//EN"
 "http://www.w3.org/TR/2001/REC-SVG-20010904/DTD/svg10.dtd">
<svg version="1.0" xmlns="http://www.w3.org/2000/svg"
 width="900.000000pt" height="212.000000pt" viewBox="0 0 900.000000 212.000000"
 preserveAspectRatio="xMidYMid meet">

<g transform="translate(0.000000,212.000000) scale(0.100000,-0.100000)"
fill="#000000" stroke="none">
<path d="M4650 1070 c0 -687 3 -1040 10 -1040 7 0 10 353 10 1040 0 687 -3
1040 -10 1040 -7 0 -10 -353 -10 -1040z"/>
<path d="M905 1983 c-15 -16 -222 -395 -461 -843 -412 -771 -435 -817 -429
-855 8 -54 47 -102 94 -116 21 -6 76 -10 122 -8 147 7 121 -28 415 562 139
280 263 520 275 533 27 28 46 30 78 7 16 -11 110 -189 277 -527 138 -281 260
-519 271 -528 36 -33 90 -48 170 -48 119 0 178 40 189 126 5 36 -26 99 -435
864 -243 454 -451 833 -464 842 -33 26 -72 22 -102 -9z"/>
<path d="M1885 2000 c-33 -13 -47 -34 -206 -325 -147 -267 -154 -283 -154
-336 0 -48 7 -71 54 -160 65 -127 84 -149 126 -149 38 0 51 14 95 98 18 34 43
73 56 87 29 32 73 33 101 3 20 -22 290 -532 447 -847 103 -204 120 -217 290
-210 74 4 88 7 111 29 34 32 55 72 55 106 0 31 -852 1635 -890 1676 -29 31
-57 40 -85 28z"/>
<path d="M3122 1999 c-21 -6 -42 -24 -60 -51 l-27 -42 -3 -805 c-2 -720 -1
-811 13 -848 31 -82 100 -112 178 -79 34 14 1085 733 1125 770 57 51 77 141
48 209 -7 18 -31 48 -52 68 -56 52 -1090 760 -1133 775 -42 15 -45 15 -89 3z
m465 -616 c308 -210 333 -232 333 -296 0 -65 -33 -98 -242 -242 -109 -75 -212
-140 -229 -145 -18 -5 -41 -5 -60 2 -57 20 -59 35 -59 388 l0 322 29 29 c50
50 81 42 228 -58z"/>
<path d="M5255 1495 c-87 -19 -128 -38 -179 -85 -68 -62 -79 -147 -33 -237 34
-65 108 -100 344 -164 103 -27 213 -62 245 -76 174 -78 191 -257 33 -333 -154
-74 -386 -66 -562 21 -58 28 -92 31 -77 8 11 -18 107 -61 179 -79 111 -28 225
-34 324 -16 98 17 199 63 235 107 55 65 56 162 2 232 -49 63 -128 100 -341
157 -104 28 -218 64 -252 81 -172 83 -169 254 5 332 153 69 370 55 531 -35 35
-19 57 -26 63 -20 11 11 -42 49 -108 77 -100 42 -289 56 -409 30z"/>
<path d="M6431 1494 c-81 -22 -149 -62 -217 -129 -66 -65 -102 -127 -129 -219
-23 -77 -17 -218 12 -298 80 -219 314 -357 541 -318 186 31 343 170 396 349
20 67 21 198 2 267 -45 168 -183 305 -353 349 -71 19 -181 18 -252 -1z m210
-14 c141 -26 271 -130 336 -266 32 -67 38 -90 41 -167 3 -64 0 -106 -13 -153
-34 -125 -139 -249 -263 -307 -63 -30 -73 -32 -182 -32 -109 0 -119 2 -182 32
-167 79 -278 250 -278 427 0 220 154 415 364 461 76 17 109 18 177 5z"/>
<path d="M7340 1015 c0 -416 2 -475 15 -475 13 0 15 33 15 235 l0 235 305 0
c194 0 305 4 305 10 0 6 -112 11 -302 12 l-303 3 -3 218 -2 217 340 0 c220 0
340 4 340 10 0 6 -125 10 -355 10 l-355 0 0 -475z"/>
<path d="M8190 1480 c0 -6 70 -10 190 -10 l190 0 0 -465 c0 -407 2 -465 15
-465 13 0 15 58 15 465 l0 465 195 0 c123 0 195 4 195 10 0 7 -140 10 -400 10
-260 0 -400 -3 -400 -10z"/>
<path d="M5253 330 c-13 -5 -32 -24 -43 -42 l-20 -33 0 38 c0 20 -4 37 -8 37
-5 0 -23 -20 -41 -45 -17 -24 -36 -47 -40 -50 -5 -3 -26 17 -46 45 -20 27 -40
50 -44 50 -5 0 -9 -38 -10 -85 -1 -58 2 -85 9 -85 8 0 11 23 8 70 -2 39 0 70
3 70 3 0 20 -20 38 -45 37 -51 44 -50 82 11 11 19 25 34 30 34 5 0 10 -33 11
-72 1 -54 3 -61 6 -28 l4 45 13 -33 c20 -47 72 -68 119 -48 39 16 56 42 56 85
0 59 -71 105 -127 81z m95 -36 c28 -31 28 -64 1 -98 -29 -37 -89 -37 -118 0
-25 32 -27 62 -5 92 33 47 82 49 122 6z"/>
<path d="M5592 253 l-2 -93 68 2 67 2 -62 3 -62 4 -4 87 -3 87 -2 -92z"/>
<path d="M6013 333 l-63 -4 0 -84 0 -85 68 2 67 2 -62 3 -63 4 0 34 0 35 57 0
c67 0 64 13 -4 14 -47 1 -48 2 -51 34 l-3 32 59 0 59 0 36 -81 c20 -44 40 -78
45 -75 5 3 22 37 38 76 16 38 32 70 37 70 4 0 7 -34 7 -75 l0 -75 138 2 c75 1
109 3 75 5 l-63 4 0 79 0 80 -83 0 -83 0 -34 -77 -34 -77 -38 82 c-21 45 -39
81 -40 80 -2 -1 -31 -3 -65 -5z m367 -88 l0 -75 -65 0 -65 0 0 35 0 35 58 2
57 1 -55 6 c-53 6 -55 7 -58 39 l-3 32 65 0 66 0 0 -75z"/>
<path d="M6541 326 c-55 -31 -65 -91 -22 -138 22 -25 37 -32 64 -32 38 0 87
35 87 61 0 7 5 13 11 13 7 0 10 -14 7 -35 -2 -19 0 -35 4 -35 4 0 8 16 8 35
l0 35 47 0 c29 0 53 6 65 17 17 15 18 14 18 -35 l0 -52 75 0 75 0 0 35 c0 34
1 35 39 35 34 0 42 -5 61 -35 12 -19 26 -35 31 -35 6 0 -1 15 -15 33 -26 34
-26 34 -6 52 22 20 26 55 8 73 -8 8 -54 12 -140 12 -112 0 -128 -2 -128 -17 0
-15 -1 -15 -18 0 -12 11 -36 17 -70 17 l-52 0 0 -35 c0 -19 -4 -35 -10 -35 -5
0 -10 6 -10 13 0 21 -43 56 -75 62 -17 3 -41 -1 -54 -9z m78 -11 c39 -20 54
-64 35 -101 -19 -35 -31 -44 -67 -44 -41 0 -63 15 -76 51 -17 48 20 104 72
108 4 1 21 -6 36 -14z m175 -1 c19 -7 21 -45 4 -62 -7 -7 -31 -12 -55 -12
l-43 0 0 40 c0 40 0 40 39 40 22 0 46 -3 55 -6z m176 -69 l0 -75 -65 0 -65 0
0 35 0 35 58 2 57 1 -55 6 c-53 6 -55 7 -58 39 l-3 32 65 0 66 0 0 -75z m118
63 c34 -34 -3 -71 -66 -66 -35 3 -37 5 -40 41 l-3 37 48 0 c27 0 54 -5 61 -12z"/>
<path d="M7754 330 c-56 -22 -41 -65 31 -85 64 -19 84 -38 64 -61 -11 -13 -26
-15 -74 -11 -46 4 -56 3 -40 -5 26 -15 101 -14 119 2 19 15 21 44 4 58 -7 5
-33 16 -58 23 -25 7 -52 18 -60 26 -12 11 -12 15 2 29 18 18 55 22 103 11 l30
-7 -30 14 c-34 17 -60 19 -91 6z"/>
<path d="M7934 330 c-47 -19 -68 -85 -43 -132 6 -11 26 -26 45 -34 47 -20 99
1 119 48 l13 33 4 -45 5 -45 1 43 2 42 55 0 c30 0 55 3 55 8 0 4 -24 7 -52 7
-52 0 -53 0 -56 33 l-3 32 90 0 90 0 4 -82 3 -83 2 83 2 82 29 0 c27 0 30 -5
57 -80 15 -44 30 -80 34 -80 3 0 17 32 30 70 22 63 40 89 40 59 0 -25 43 -130
50 -122 11 12 61 155 56 160 -4 5 -46 -101 -46 -117 0 -5 -4 -11 -9 -15 -6 -3
-20 26 -32 65 -13 38 -26 70 -30 70 -4 0 -18 -31 -30 -70 -13 -38 -26 -70 -29
-70 -3 0 -16 32 -29 70 l-22 70 -135 0 -134 0 0 -37 0 -38 -20 33 c-28 45 -70
61 -116 42z m94 -36 c28 -31 28 -64 1 -98 -29 -37 -89 -37 -118 0 -25 32 -27
62 -5 92 33 47 82 49 122 6z"/>
<path d="M8913 333 c-47 -3 -63 -8 -63 -18 0 -20 -16 -19 -24 0 -4 11 -21 15
-66 15 l-60 0 -1 -77 -1 -78 -36 78 c-19 42 -38 77 -41 77 -4 0 -26 -38 -49
-85 -23 -47 -38 -85 -34 -85 5 0 14 11 20 25 17 37 103 37 120 0 16 -36 32
-31 32 10 0 34 1 35 38 35 31 0 41 -6 61 -35 l24 -35 81 2 81 2 -67 3 -68 4 0
34 0 35 55 0 c30 0 55 3 55 8 0 4 -24 7 -52 7 -52 0 -53 0 -56 33 l-3 32 60 0
c34 0 61 4 61 10 0 6 -1 9 -2 8 -2 -1 -31 -3 -65 -5z m-95 -25 c34 -34 -3 -71
-66 -66 -35 3 -37 5 -40 41 l-3 37 48 0 c27 0 54 -5 61 -12z m-178 -38 c11
-21 20 -42 20 -45 0 -3 -18 -5 -41 -5 -35 0 -40 3 -34 18 4 9 12 29 17 45 5
15 12 27 14 27 2 0 13 -18 24 -40z m210 -52 l-1 -53 -24 30 -24 29 21 23 c12
13 23 23 25 23 2 0 3 -24 3 -52z"/>
<path d="M5382 319 c30 -73 72 -159 78 -159 4 0 22 34 40 75 18 42 37 78 42
81 6 4 8 -27 6 -75 -2 -50 1 -81 7 -81 6 0 10 35 10 85 0 74 -2 85 -18 85 -12
0 -27 -22 -48 -70 -18 -38 -35 -70 -39 -70 -4 0 -20 29 -36 65 -15 36 -32 69
-37 72 -6 4 -8 0 -5 -8z"/>
<path d="M5780 245 l0 -85 50 0 c41 0 56 5 75 25 36 35 37 85 2 123 -16 17
-31 22 -74 22 l-53 0 0 -85z m117 53 c54 -50 12 -128 -68 -128 l-39 0 0 75 0
75 42 0 c29 0 49 -7 65 -22z"/>
<path d="M7210 258 c-38 -86 -48 -114 -25 -75 14 24 22 27 66 27 43 0 51 -3
61 -25 6 -14 17 -25 25 -25 10 0 13 18 13 70 0 39 3 70 8 69 4 0 31 -31 60
-70 29 -38 56 -69 61 -69 4 0 8 38 10 85 2 59 -1 85 -9 85 -8 0 -11 -22 -8
-70 2 -39 1 -70 -2 -70 -3 0 -33 33 -65 73 l-60 72 -3 -77 c-2 -43 -6 -78 -11
-78 -4 0 -22 34 -40 75 -18 41 -37 75 -41 75 -4 0 -22 -33 -40 -72z m60 15 c8
-21 16 -41 18 -45 2 -5 -15 -8 -38 -8 -23 0 -40 3 -38 8 2 4 10 24 18 45 8 20
17 37 20 37 3 0 12 -17 20 -37z"/>
<path d="M7500 245 l0 -85 49 0 c67 0 103 30 103 84 0 58 -32 86 -99 86 l-53
0 0 -85z m117 53 c54 -50 12 -128 -68 -128 l-39 0 0 75 0 75 42 0 c29 0 49 -7
65 -22z"/>
</g>
</svg>
